<mxfile host="app.diagrams.net" agent="Mozilla/5.0 (Windows NT 10.0; Win64; x64) AppleWebKit/537.36 (KHTML, like Gecko) Chrome/136.0.0.0 Safari/537.36 Edg/136.0.0.0" version="27.0.5">
  <diagram name="Страница — 1" id="V9u_leZM8q_xmWR-oSUK">
    <mxGraphModel dx="2796" dy="1134" grid="1" gridSize="10" guides="1" tooltips="1" connect="1" arrows="1" fold="1" page="1" pageScale="1" pageWidth="827" pageHeight="1169" math="0" shadow="0">
      <root>
        <mxCell id="0" />
        <mxCell id="1" parent="0" />
        <mxCell id="wAqB0g8G6jM0NXX6ydy0-1" value="Part" style="shape=table;startSize=30;container=1;collapsible=1;childLayout=tableLayout;fixedRows=1;rowLines=0;fontStyle=1;align=center;resizeLast=1;html=1;" parent="1" vertex="1">
          <mxGeometry x="110" y="305" width="180" height="120" as="geometry" />
        </mxCell>
        <mxCell id="wAqB0g8G6jM0NXX6ydy0-2" value="" style="shape=tableRow;horizontal=0;startSize=0;swimlaneHead=0;swimlaneBody=0;fillColor=none;collapsible=0;dropTarget=0;points=[[0,0.5],[1,0.5]];portConstraint=eastwest;top=0;left=0;right=0;bottom=1;" parent="wAqB0g8G6jM0NXX6ydy0-1" vertex="1">
          <mxGeometry y="30" width="180" height="30" as="geometry" />
        </mxCell>
        <mxCell id="wAqB0g8G6jM0NXX6ydy0-3" value="K1" style="shape=partialRectangle;connectable=0;fillColor=none;top=0;left=0;bottom=0;right=0;fontStyle=1;overflow=hidden;whiteSpace=wrap;html=1;" parent="wAqB0g8G6jM0NXX6ydy0-2" vertex="1">
          <mxGeometry width="30" height="30" as="geometry">
            <mxRectangle width="30" height="30" as="alternateBounds" />
          </mxGeometry>
        </mxCell>
        <mxCell id="wAqB0g8G6jM0NXX6ydy0-4" value="PartID" style="shape=partialRectangle;connectable=0;fillColor=none;top=0;left=0;bottom=0;right=0;align=left;spacingLeft=6;fontStyle=5;overflow=hidden;whiteSpace=wrap;html=1;" parent="wAqB0g8G6jM0NXX6ydy0-2" vertex="1">
          <mxGeometry x="30" width="150" height="30" as="geometry">
            <mxRectangle width="150" height="30" as="alternateBounds" />
          </mxGeometry>
        </mxCell>
        <mxCell id="wAqB0g8G6jM0NXX6ydy0-5" value="" style="shape=tableRow;horizontal=0;startSize=0;swimlaneHead=0;swimlaneBody=0;fillColor=none;collapsible=0;dropTarget=0;points=[[0,0.5],[1,0.5]];portConstraint=eastwest;top=0;left=0;right=0;bottom=0;" parent="wAqB0g8G6jM0NXX6ydy0-1" vertex="1">
          <mxGeometry y="60" width="180" height="30" as="geometry" />
        </mxCell>
        <mxCell id="wAqB0g8G6jM0NXX6ydy0-6" value="" style="shape=partialRectangle;connectable=0;fillColor=none;top=0;left=0;bottom=0;right=0;editable=1;overflow=hidden;whiteSpace=wrap;html=1;" parent="wAqB0g8G6jM0NXX6ydy0-5" vertex="1">
          <mxGeometry width="30" height="30" as="geometry">
            <mxRectangle width="30" height="30" as="alternateBounds" />
          </mxGeometry>
        </mxCell>
        <mxCell id="wAqB0g8G6jM0NXX6ydy0-7" value="Name" style="shape=partialRectangle;connectable=0;fillColor=none;top=0;left=0;bottom=0;right=0;align=left;spacingLeft=6;overflow=hidden;whiteSpace=wrap;html=1;" parent="wAqB0g8G6jM0NXX6ydy0-5" vertex="1">
          <mxGeometry x="30" width="150" height="30" as="geometry">
            <mxRectangle width="150" height="30" as="alternateBounds" />
          </mxGeometry>
        </mxCell>
        <mxCell id="wAqB0g8G6jM0NXX6ydy0-97" value="" style="shape=tableRow;horizontal=0;startSize=0;swimlaneHead=0;swimlaneBody=0;fillColor=none;collapsible=0;dropTarget=0;points=[[0,0.5],[1,0.5]];portConstraint=eastwest;top=0;left=0;right=0;bottom=0;" parent="wAqB0g8G6jM0NXX6ydy0-1" vertex="1">
          <mxGeometry y="90" width="180" height="30" as="geometry" />
        </mxCell>
        <mxCell id="wAqB0g8G6jM0NXX6ydy0-98" value="" style="shape=partialRectangle;connectable=0;fillColor=none;top=0;left=0;bottom=0;right=0;editable=1;overflow=hidden;whiteSpace=wrap;html=1;" parent="wAqB0g8G6jM0NXX6ydy0-97" vertex="1">
          <mxGeometry width="30" height="30" as="geometry">
            <mxRectangle width="30" height="30" as="alternateBounds" />
          </mxGeometry>
        </mxCell>
        <mxCell id="wAqB0g8G6jM0NXX6ydy0-99" value="SalePrice" style="shape=partialRectangle;connectable=0;fillColor=none;top=0;left=0;bottom=0;right=0;align=left;spacingLeft=6;overflow=hidden;whiteSpace=wrap;html=1;" parent="wAqB0g8G6jM0NXX6ydy0-97" vertex="1">
          <mxGeometry x="30" width="150" height="30" as="geometry">
            <mxRectangle width="150" height="30" as="alternateBounds" />
          </mxGeometry>
        </mxCell>
        <mxCell id="wAqB0g8G6jM0NXX6ydy0-14" value="Order" style="shape=table;startSize=30;container=1;collapsible=1;childLayout=tableLayout;fixedRows=1;rowLines=0;fontStyle=1;align=center;resizeLast=1;html=1;" parent="1" vertex="1">
          <mxGeometry x="700" y="290" width="180" height="150" as="geometry" />
        </mxCell>
        <mxCell id="wAqB0g8G6jM0NXX6ydy0-15" value="" style="shape=tableRow;horizontal=0;startSize=0;swimlaneHead=0;swimlaneBody=0;fillColor=none;collapsible=0;dropTarget=0;points=[[0,0.5],[1,0.5]];portConstraint=eastwest;top=0;left=0;right=0;bottom=1;" parent="wAqB0g8G6jM0NXX6ydy0-14" vertex="1">
          <mxGeometry y="30" width="180" height="30" as="geometry" />
        </mxCell>
        <mxCell id="wAqB0g8G6jM0NXX6ydy0-16" value="K3" style="shape=partialRectangle;connectable=0;fillColor=none;top=0;left=0;bottom=0;right=0;fontStyle=1;overflow=hidden;whiteSpace=wrap;html=1;" parent="wAqB0g8G6jM0NXX6ydy0-15" vertex="1">
          <mxGeometry width="30.000000000000455" height="30" as="geometry">
            <mxRectangle width="30.000000000000455" height="30" as="alternateBounds" />
          </mxGeometry>
        </mxCell>
        <mxCell id="wAqB0g8G6jM0NXX6ydy0-17" value="OrderID" style="shape=partialRectangle;connectable=0;fillColor=none;top=0;left=0;bottom=0;right=0;align=left;spacingLeft=6;fontStyle=5;overflow=hidden;whiteSpace=wrap;html=1;" parent="wAqB0g8G6jM0NXX6ydy0-15" vertex="1">
          <mxGeometry x="30.000000000000455" width="149.99999999999955" height="30" as="geometry">
            <mxRectangle width="149.99999999999955" height="30" as="alternateBounds" />
          </mxGeometry>
        </mxCell>
        <mxCell id="wAqB0g8G6jM0NXX6ydy0-21" value="" style="shape=tableRow;horizontal=0;startSize=0;swimlaneHead=0;swimlaneBody=0;fillColor=none;collapsible=0;dropTarget=0;points=[[0,0.5],[1,0.5]];portConstraint=eastwest;top=0;left=0;right=0;bottom=0;" parent="wAqB0g8G6jM0NXX6ydy0-14" vertex="1">
          <mxGeometry y="60" width="180" height="30" as="geometry" />
        </mxCell>
        <mxCell id="wAqB0g8G6jM0NXX6ydy0-22" value="" style="shape=partialRectangle;connectable=0;fillColor=none;top=0;left=0;bottom=0;right=0;editable=1;overflow=hidden;whiteSpace=wrap;html=1;" parent="wAqB0g8G6jM0NXX6ydy0-21" vertex="1">
          <mxGeometry width="30.000000000000455" height="30" as="geometry">
            <mxRectangle width="30.000000000000455" height="30" as="alternateBounds" />
          </mxGeometry>
        </mxCell>
        <mxCell id="wAqB0g8G6jM0NXX6ydy0-23" value="SupplierID(С3)" style="shape=partialRectangle;connectable=0;fillColor=none;top=0;left=0;bottom=0;right=0;align=left;spacingLeft=6;overflow=hidden;whiteSpace=wrap;html=1;" parent="wAqB0g8G6jM0NXX6ydy0-21" vertex="1">
          <mxGeometry x="30.000000000000455" width="149.99999999999955" height="30" as="geometry">
            <mxRectangle width="149.99999999999955" height="30" as="alternateBounds" />
          </mxGeometry>
        </mxCell>
        <mxCell id="wAqB0g8G6jM0NXX6ydy0-100" value="" style="shape=tableRow;horizontal=0;startSize=0;swimlaneHead=0;swimlaneBody=0;fillColor=none;collapsible=0;dropTarget=0;points=[[0,0.5],[1,0.5]];portConstraint=eastwest;top=0;left=0;right=0;bottom=0;" parent="wAqB0g8G6jM0NXX6ydy0-14" vertex="1">
          <mxGeometry y="90" width="180" height="30" as="geometry" />
        </mxCell>
        <mxCell id="wAqB0g8G6jM0NXX6ydy0-101" value="" style="shape=partialRectangle;connectable=0;fillColor=none;top=0;left=0;bottom=0;right=0;editable=1;overflow=hidden;whiteSpace=wrap;html=1;" parent="wAqB0g8G6jM0NXX6ydy0-100" vertex="1">
          <mxGeometry width="30.000000000000455" height="30" as="geometry">
            <mxRectangle width="30.000000000000455" height="30" as="alternateBounds" />
          </mxGeometry>
        </mxCell>
        <mxCell id="wAqB0g8G6jM0NXX6ydy0-102" value="Date" style="shape=partialRectangle;connectable=0;fillColor=none;top=0;left=0;bottom=0;right=0;align=left;spacingLeft=6;overflow=hidden;whiteSpace=wrap;html=1;" parent="wAqB0g8G6jM0NXX6ydy0-100" vertex="1">
          <mxGeometry x="30.000000000000455" width="149.99999999999955" height="30" as="geometry">
            <mxRectangle width="149.99999999999955" height="30" as="alternateBounds" />
          </mxGeometry>
        </mxCell>
        <mxCell id="wAqB0g8G6jM0NXX6ydy0-119" value="" style="shape=tableRow;horizontal=0;startSize=0;swimlaneHead=0;swimlaneBody=0;fillColor=none;collapsible=0;dropTarget=0;points=[[0,0.5],[1,0.5]];portConstraint=eastwest;top=0;left=0;right=0;bottom=0;" parent="wAqB0g8G6jM0NXX6ydy0-14" vertex="1">
          <mxGeometry y="120" width="180" height="30" as="geometry" />
        </mxCell>
        <mxCell id="wAqB0g8G6jM0NXX6ydy0-120" value="" style="shape=partialRectangle;connectable=0;fillColor=none;top=0;left=0;bottom=0;right=0;editable=1;overflow=hidden;whiteSpace=wrap;html=1;" parent="wAqB0g8G6jM0NXX6ydy0-119" vertex="1">
          <mxGeometry width="30.000000000000455" height="30" as="geometry">
            <mxRectangle width="30.000000000000455" height="30" as="alternateBounds" />
          </mxGeometry>
        </mxCell>
        <mxCell id="wAqB0g8G6jM0NXX6ydy0-121" value="Status" style="shape=partialRectangle;connectable=0;fillColor=none;top=0;left=0;bottom=0;right=0;align=left;spacingLeft=6;overflow=hidden;whiteSpace=wrap;html=1;" parent="wAqB0g8G6jM0NXX6ydy0-119" vertex="1">
          <mxGeometry x="30.000000000000455" width="149.99999999999955" height="30" as="geometry">
            <mxRectangle width="149.99999999999955" height="30" as="alternateBounds" />
          </mxGeometry>
        </mxCell>
        <mxCell id="wAqB0g8G6jM0NXX6ydy0-27" value="Supplier" style="shape=table;startSize=30;container=1;collapsible=1;childLayout=tableLayout;fixedRows=1;rowLines=0;fontStyle=1;align=center;resizeLast=1;html=1;" parent="1" vertex="1">
          <mxGeometry x="1000" y="260" width="180" height="205" as="geometry" />
        </mxCell>
        <mxCell id="wAqB0g8G6jM0NXX6ydy0-28" value="" style="shape=tableRow;horizontal=0;startSize=0;swimlaneHead=0;swimlaneBody=0;fillColor=none;collapsible=0;dropTarget=0;points=[[0,0.5],[1,0.5]];portConstraint=eastwest;top=0;left=0;right=0;bottom=1;" parent="wAqB0g8G6jM0NXX6ydy0-27" vertex="1">
          <mxGeometry y="30" width="180" height="55" as="geometry" />
        </mxCell>
        <mxCell id="wAqB0g8G6jM0NXX6ydy0-29" value="PK1" style="shape=partialRectangle;connectable=0;fillColor=none;top=0;left=0;bottom=0;right=0;fontStyle=1;overflow=hidden;whiteSpace=wrap;html=1;" parent="wAqB0g8G6jM0NXX6ydy0-28" vertex="1">
          <mxGeometry width="30" height="55" as="geometry">
            <mxRectangle width="30" height="55" as="alternateBounds" />
          </mxGeometry>
        </mxCell>
        <mxCell id="wAqB0g8G6jM0NXX6ydy0-30" value="SupplierID" style="shape=partialRectangle;connectable=0;fillColor=none;top=0;left=0;bottom=0;right=0;align=left;spacingLeft=6;fontStyle=5;overflow=hidden;whiteSpace=wrap;html=1;" parent="wAqB0g8G6jM0NXX6ydy0-28" vertex="1">
          <mxGeometry x="30" width="150" height="55" as="geometry">
            <mxRectangle width="150" height="55" as="alternateBounds" />
          </mxGeometry>
        </mxCell>
        <mxCell id="wAqB0g8G6jM0NXX6ydy0-31" value="" style="shape=tableRow;horizontal=0;startSize=0;swimlaneHead=0;swimlaneBody=0;fillColor=none;collapsible=0;dropTarget=0;points=[[0,0.5],[1,0.5]];portConstraint=eastwest;top=0;left=0;right=0;bottom=0;" parent="wAqB0g8G6jM0NXX6ydy0-27" vertex="1">
          <mxGeometry y="85" width="180" height="30" as="geometry" />
        </mxCell>
        <mxCell id="wAqB0g8G6jM0NXX6ydy0-32" value="" style="shape=partialRectangle;connectable=0;fillColor=none;top=0;left=0;bottom=0;right=0;editable=1;overflow=hidden;whiteSpace=wrap;html=1;" parent="wAqB0g8G6jM0NXX6ydy0-31" vertex="1">
          <mxGeometry width="30" height="30" as="geometry">
            <mxRectangle width="30" height="30" as="alternateBounds" />
          </mxGeometry>
        </mxCell>
        <mxCell id="wAqB0g8G6jM0NXX6ydy0-33" value="Name" style="shape=partialRectangle;connectable=0;fillColor=none;top=0;left=0;bottom=0;right=0;align=left;spacingLeft=6;overflow=hidden;whiteSpace=wrap;html=1;" parent="wAqB0g8G6jM0NXX6ydy0-31" vertex="1">
          <mxGeometry x="30" width="150" height="30" as="geometry">
            <mxRectangle width="150" height="30" as="alternateBounds" />
          </mxGeometry>
        </mxCell>
        <mxCell id="wAqB0g8G6jM0NXX6ydy0-34" value="" style="shape=tableRow;horizontal=0;startSize=0;swimlaneHead=0;swimlaneBody=0;fillColor=none;collapsible=0;dropTarget=0;points=[[0,0.5],[1,0.5]];portConstraint=eastwest;top=0;left=0;right=0;bottom=0;" parent="wAqB0g8G6jM0NXX6ydy0-27" vertex="1">
          <mxGeometry y="115" width="180" height="30" as="geometry" />
        </mxCell>
        <mxCell id="wAqB0g8G6jM0NXX6ydy0-35" value="" style="shape=partialRectangle;connectable=0;fillColor=none;top=0;left=0;bottom=0;right=0;editable=1;overflow=hidden;whiteSpace=wrap;html=1;" parent="wAqB0g8G6jM0NXX6ydy0-34" vertex="1">
          <mxGeometry width="30" height="30" as="geometry">
            <mxRectangle width="30" height="30" as="alternateBounds" />
          </mxGeometry>
        </mxCell>
        <mxCell id="wAqB0g8G6jM0NXX6ydy0-36" value="Country" style="shape=partialRectangle;connectable=0;fillColor=none;top=0;left=0;bottom=0;right=0;align=left;spacingLeft=6;overflow=hidden;whiteSpace=wrap;html=1;" parent="wAqB0g8G6jM0NXX6ydy0-34" vertex="1">
          <mxGeometry x="30" width="150" height="30" as="geometry">
            <mxRectangle width="150" height="30" as="alternateBounds" />
          </mxGeometry>
        </mxCell>
        <mxCell id="wAqB0g8G6jM0NXX6ydy0-37" value="" style="shape=tableRow;horizontal=0;startSize=0;swimlaneHead=0;swimlaneBody=0;fillColor=none;collapsible=0;dropTarget=0;points=[[0,0.5],[1,0.5]];portConstraint=eastwest;top=0;left=0;right=0;bottom=0;" parent="wAqB0g8G6jM0NXX6ydy0-27" vertex="1">
          <mxGeometry y="145" width="180" height="30" as="geometry" />
        </mxCell>
        <mxCell id="wAqB0g8G6jM0NXX6ydy0-38" value="" style="shape=partialRectangle;connectable=0;fillColor=none;top=0;left=0;bottom=0;right=0;editable=1;overflow=hidden;whiteSpace=wrap;html=1;" parent="wAqB0g8G6jM0NXX6ydy0-37" vertex="1">
          <mxGeometry width="30" height="30" as="geometry">
            <mxRectangle width="30" height="30" as="alternateBounds" />
          </mxGeometry>
        </mxCell>
        <mxCell id="wAqB0g8G6jM0NXX6ydy0-39" value="ContactInfo" style="shape=partialRectangle;connectable=0;fillColor=none;top=0;left=0;bottom=0;right=0;align=left;spacingLeft=6;overflow=hidden;whiteSpace=wrap;html=1;" parent="wAqB0g8G6jM0NXX6ydy0-37" vertex="1">
          <mxGeometry x="30" width="150" height="30" as="geometry">
            <mxRectangle width="150" height="30" as="alternateBounds" />
          </mxGeometry>
        </mxCell>
        <mxCell id="wAqB0g8G6jM0NXX6ydy0-103" value="" style="shape=tableRow;horizontal=0;startSize=0;swimlaneHead=0;swimlaneBody=0;fillColor=none;collapsible=0;dropTarget=0;points=[[0,0.5],[1,0.5]];portConstraint=eastwest;top=0;left=0;right=0;bottom=0;" parent="wAqB0g8G6jM0NXX6ydy0-27" vertex="1">
          <mxGeometry y="175" width="180" height="30" as="geometry" />
        </mxCell>
        <mxCell id="wAqB0g8G6jM0NXX6ydy0-104" value="" style="shape=partialRectangle;connectable=0;fillColor=none;top=0;left=0;bottom=0;right=0;editable=1;overflow=hidden;whiteSpace=wrap;html=1;" parent="wAqB0g8G6jM0NXX6ydy0-103" vertex="1">
          <mxGeometry width="30" height="30" as="geometry">
            <mxRectangle width="30" height="30" as="alternateBounds" />
          </mxGeometry>
        </mxCell>
        <mxCell id="wAqB0g8G6jM0NXX6ydy0-105" value="Type" style="shape=partialRectangle;connectable=0;fillColor=none;top=0;left=0;bottom=0;right=0;align=left;spacingLeft=6;overflow=hidden;whiteSpace=wrap;html=1;" parent="wAqB0g8G6jM0NXX6ydy0-103" vertex="1">
          <mxGeometry x="30" width="150" height="30" as="geometry">
            <mxRectangle width="150" height="30" as="alternateBounds" />
          </mxGeometry>
        </mxCell>
        <mxCell id="wAqB0g8G6jM0NXX6ydy0-40" value="SmallSupplier" style="shape=table;startSize=30;container=1;collapsible=1;childLayout=tableLayout;fixedRows=1;rowLines=0;fontStyle=1;align=center;resizeLast=1;html=1;" parent="1" vertex="1">
          <mxGeometry x="990" y="40" width="180" height="90" as="geometry" />
        </mxCell>
        <mxCell id="wAqB0g8G6jM0NXX6ydy0-41" value="" style="shape=tableRow;horizontal=0;startSize=0;swimlaneHead=0;swimlaneBody=0;fillColor=none;collapsible=0;dropTarget=0;points=[[0,0.5],[1,0.5]];portConstraint=eastwest;top=0;left=0;right=0;bottom=1;" parent="wAqB0g8G6jM0NXX6ydy0-40" vertex="1">
          <mxGeometry y="30" width="180" height="30" as="geometry" />
        </mxCell>
        <mxCell id="wAqB0g8G6jM0NXX6ydy0-42" value="K4" style="shape=partialRectangle;connectable=0;fillColor=none;top=0;left=0;bottom=0;right=0;fontStyle=1;overflow=hidden;whiteSpace=wrap;html=1;" parent="wAqB0g8G6jM0NXX6ydy0-41" vertex="1">
          <mxGeometry width="30" height="30" as="geometry">
            <mxRectangle width="30" height="30" as="alternateBounds" />
          </mxGeometry>
        </mxCell>
        <mxCell id="wAqB0g8G6jM0NXX6ydy0-43" value="SupplierID(С4)" style="shape=partialRectangle;connectable=0;fillColor=none;top=0;left=0;bottom=0;right=0;align=left;spacingLeft=6;fontStyle=5;overflow=hidden;whiteSpace=wrap;html=1;" parent="wAqB0g8G6jM0NXX6ydy0-41" vertex="1">
          <mxGeometry x="30" width="150" height="30" as="geometry">
            <mxRectangle width="150" height="30" as="alternateBounds" />
          </mxGeometry>
        </mxCell>
        <mxCell id="wAqB0g8G6jM0NXX6ydy0-44" value="" style="shape=tableRow;horizontal=0;startSize=0;swimlaneHead=0;swimlaneBody=0;fillColor=none;collapsible=0;dropTarget=0;points=[[0,0.5],[1,0.5]];portConstraint=eastwest;top=0;left=0;right=0;bottom=0;" parent="wAqB0g8G6jM0NXX6ydy0-40" vertex="1">
          <mxGeometry y="60" width="180" height="30" as="geometry" />
        </mxCell>
        <mxCell id="wAqB0g8G6jM0NXX6ydy0-45" value="" style="shape=partialRectangle;connectable=0;fillColor=none;top=0;left=0;bottom=0;right=0;editable=1;overflow=hidden;whiteSpace=wrap;html=1;" parent="wAqB0g8G6jM0NXX6ydy0-44" vertex="1">
          <mxGeometry width="30" height="30" as="geometry">
            <mxRectangle width="30" height="30" as="alternateBounds" />
          </mxGeometry>
        </mxCell>
        <mxCell id="wAqB0g8G6jM0NXX6ydy0-46" value="Specialization" style="shape=partialRectangle;connectable=0;fillColor=none;top=0;left=0;bottom=0;right=0;align=left;spacingLeft=6;overflow=hidden;whiteSpace=wrap;html=1;" parent="wAqB0g8G6jM0NXX6ydy0-44" vertex="1">
          <mxGeometry x="30" width="150" height="30" as="geometry">
            <mxRectangle width="150" height="30" as="alternateBounds" />
          </mxGeometry>
        </mxCell>
        <mxCell id="wAqB0g8G6jM0NXX6ydy0-53" value="SmallProduction" style="shape=table;startSize=30;container=1;collapsible=1;childLayout=tableLayout;fixedRows=1;rowLines=0;fontStyle=1;align=center;resizeLast=1;html=1;" parent="1" vertex="1">
          <mxGeometry x="990" y="570" width="180" height="90" as="geometry" />
        </mxCell>
        <mxCell id="wAqB0g8G6jM0NXX6ydy0-54" value="" style="shape=tableRow;horizontal=0;startSize=0;swimlaneHead=0;swimlaneBody=0;fillColor=none;collapsible=0;dropTarget=0;points=[[0,0.5],[1,0.5]];portConstraint=eastwest;top=0;left=0;right=0;bottom=1;" parent="wAqB0g8G6jM0NXX6ydy0-53" vertex="1">
          <mxGeometry y="30" width="180" height="30" as="geometry" />
        </mxCell>
        <mxCell id="wAqB0g8G6jM0NXX6ydy0-55" value="K8&lt;div&gt;&lt;br&gt;&lt;/div&gt;" style="shape=partialRectangle;connectable=0;fillColor=none;top=0;left=0;bottom=0;right=0;fontStyle=1;overflow=hidden;whiteSpace=wrap;html=1;" parent="wAqB0g8G6jM0NXX6ydy0-54" vertex="1">
          <mxGeometry width="30.000000000000455" height="30" as="geometry">
            <mxRectangle width="30.000000000000455" height="30" as="alternateBounds" />
          </mxGeometry>
        </mxCell>
        <mxCell id="wAqB0g8G6jM0NXX6ydy0-56" value="SupplierID(С8)" style="shape=partialRectangle;connectable=0;fillColor=none;top=0;left=0;bottom=0;right=0;align=left;spacingLeft=6;fontStyle=5;overflow=hidden;whiteSpace=wrap;html=1;" parent="wAqB0g8G6jM0NXX6ydy0-54" vertex="1">
          <mxGeometry x="30.000000000000455" width="149.99999999999955" height="30" as="geometry">
            <mxRectangle width="149.99999999999955" height="30" as="alternateBounds" />
          </mxGeometry>
        </mxCell>
        <mxCell id="wAqB0g8G6jM0NXX6ydy0-57" value="" style="shape=tableRow;horizontal=0;startSize=0;swimlaneHead=0;swimlaneBody=0;fillColor=none;collapsible=0;dropTarget=0;points=[[0,0.5],[1,0.5]];portConstraint=eastwest;top=0;left=0;right=0;bottom=0;" parent="wAqB0g8G6jM0NXX6ydy0-53" vertex="1">
          <mxGeometry y="60" width="180" height="30" as="geometry" />
        </mxCell>
        <mxCell id="wAqB0g8G6jM0NXX6ydy0-58" value="" style="shape=partialRectangle;connectable=0;fillColor=none;top=0;left=0;bottom=0;right=0;editable=1;overflow=hidden;whiteSpace=wrap;html=1;" parent="wAqB0g8G6jM0NXX6ydy0-57" vertex="1">
          <mxGeometry width="30.000000000000455" height="30" as="geometry">
            <mxRectangle width="30.000000000000455" height="30" as="alternateBounds" />
          </mxGeometry>
        </mxCell>
        <mxCell id="wAqB0g8G6jM0NXX6ydy0-59" value="ProductionCapacity" style="shape=partialRectangle;connectable=0;fillColor=none;top=0;left=0;bottom=0;right=0;align=left;spacingLeft=6;overflow=hidden;whiteSpace=wrap;html=1;" parent="wAqB0g8G6jM0NXX6ydy0-57" vertex="1">
          <mxGeometry x="30.000000000000455" width="149.99999999999955" height="30" as="geometry">
            <mxRectangle width="149.99999999999955" height="30" as="alternateBounds" />
          </mxGeometry>
        </mxCell>
        <mxCell id="wAqB0g8G6jM0NXX6ydy0-68" value="Manufacturer" style="shape=table;startSize=30;container=1;collapsible=1;childLayout=tableLayout;fixedRows=1;rowLines=0;fontStyle=1;align=center;resizeLast=1;html=1;" parent="1" vertex="1">
          <mxGeometry x="1360" y="290" width="180" height="150" as="geometry" />
        </mxCell>
        <mxCell id="wAqB0g8G6jM0NXX6ydy0-69" value="" style="shape=tableRow;horizontal=0;startSize=0;swimlaneHead=0;swimlaneBody=0;fillColor=none;collapsible=0;dropTarget=0;points=[[0,0.5],[1,0.5]];portConstraint=eastwest;top=0;left=0;right=0;bottom=1;" parent="wAqB0g8G6jM0NXX6ydy0-68" vertex="1">
          <mxGeometry y="30" width="180" height="30" as="geometry" />
        </mxCell>
        <mxCell id="wAqB0g8G6jM0NXX6ydy0-70" value="K6" style="shape=partialRectangle;connectable=0;fillColor=none;top=0;left=0;bottom=0;right=0;fontStyle=1;overflow=hidden;whiteSpace=wrap;html=1;" parent="wAqB0g8G6jM0NXX6ydy0-69" vertex="1">
          <mxGeometry width="30" height="30" as="geometry">
            <mxRectangle width="30" height="30" as="alternateBounds" />
          </mxGeometry>
        </mxCell>
        <mxCell id="wAqB0g8G6jM0NXX6ydy0-71" value="SupplierID(С6)" style="shape=partialRectangle;connectable=0;fillColor=none;top=0;left=0;bottom=0;right=0;align=left;spacingLeft=6;fontStyle=5;overflow=hidden;whiteSpace=wrap;html=1;" parent="wAqB0g8G6jM0NXX6ydy0-69" vertex="1">
          <mxGeometry x="30" width="150" height="30" as="geometry">
            <mxRectangle width="150" height="30" as="alternateBounds" />
          </mxGeometry>
        </mxCell>
        <mxCell id="wAqB0g8G6jM0NXX6ydy0-72" value="" style="shape=tableRow;horizontal=0;startSize=0;swimlaneHead=0;swimlaneBody=0;fillColor=none;collapsible=0;dropTarget=0;points=[[0,0.5],[1,0.5]];portConstraint=eastwest;top=0;left=0;right=0;bottom=0;" parent="wAqB0g8G6jM0NXX6ydy0-68" vertex="1">
          <mxGeometry y="60" width="180" height="30" as="geometry" />
        </mxCell>
        <mxCell id="wAqB0g8G6jM0NXX6ydy0-73" value="" style="shape=partialRectangle;connectable=0;fillColor=none;top=0;left=0;bottom=0;right=0;editable=1;overflow=hidden;whiteSpace=wrap;html=1;" parent="wAqB0g8G6jM0NXX6ydy0-72" vertex="1">
          <mxGeometry width="30" height="30" as="geometry">
            <mxRectangle width="30" height="30" as="alternateBounds" />
          </mxGeometry>
        </mxCell>
        <mxCell id="wAqB0g8G6jM0NXX6ydy0-74" value="Name" style="shape=partialRectangle;connectable=0;fillColor=none;top=0;left=0;bottom=0;right=0;align=left;spacingLeft=6;overflow=hidden;whiteSpace=wrap;html=1;" parent="wAqB0g8G6jM0NXX6ydy0-72" vertex="1">
          <mxGeometry x="30" width="150" height="30" as="geometry">
            <mxRectangle width="150" height="30" as="alternateBounds" />
          </mxGeometry>
        </mxCell>
        <mxCell id="wAqB0g8G6jM0NXX6ydy0-75" value="" style="shape=tableRow;horizontal=0;startSize=0;swimlaneHead=0;swimlaneBody=0;fillColor=none;collapsible=0;dropTarget=0;points=[[0,0.5],[1,0.5]];portConstraint=eastwest;top=0;left=0;right=0;bottom=0;" parent="wAqB0g8G6jM0NXX6ydy0-68" vertex="1">
          <mxGeometry y="90" width="180" height="30" as="geometry" />
        </mxCell>
        <mxCell id="wAqB0g8G6jM0NXX6ydy0-76" value="" style="shape=partialRectangle;connectable=0;fillColor=none;top=0;left=0;bottom=0;right=0;editable=1;overflow=hidden;whiteSpace=wrap;html=1;" parent="wAqB0g8G6jM0NXX6ydy0-75" vertex="1">
          <mxGeometry width="30" height="30" as="geometry">
            <mxRectangle width="30" height="30" as="alternateBounds" />
          </mxGeometry>
        </mxCell>
        <mxCell id="wAqB0g8G6jM0NXX6ydy0-77" value="WarrantyPeriod" style="shape=partialRectangle;connectable=0;fillColor=none;top=0;left=0;bottom=0;right=0;align=left;spacingLeft=6;overflow=hidden;whiteSpace=wrap;html=1;" parent="wAqB0g8G6jM0NXX6ydy0-75" vertex="1">
          <mxGeometry x="30" width="150" height="30" as="geometry">
            <mxRectangle width="150" height="30" as="alternateBounds" />
          </mxGeometry>
        </mxCell>
        <mxCell id="wAqB0g8G6jM0NXX6ydy0-78" value="" style="shape=tableRow;horizontal=0;startSize=0;swimlaneHead=0;swimlaneBody=0;fillColor=none;collapsible=0;dropTarget=0;points=[[0,0.5],[1,0.5]];portConstraint=eastwest;top=0;left=0;right=0;bottom=0;" parent="wAqB0g8G6jM0NXX6ydy0-68" vertex="1">
          <mxGeometry y="120" width="180" height="30" as="geometry" />
        </mxCell>
        <mxCell id="wAqB0g8G6jM0NXX6ydy0-79" value="" style="shape=partialRectangle;connectable=0;fillColor=none;top=0;left=0;bottom=0;right=0;editable=1;overflow=hidden;whiteSpace=wrap;html=1;" parent="wAqB0g8G6jM0NXX6ydy0-78" vertex="1">
          <mxGeometry width="30" height="30" as="geometry">
            <mxRectangle width="30" height="30" as="alternateBounds" />
          </mxGeometry>
        </mxCell>
        <mxCell id="wAqB0g8G6jM0NXX6ydy0-80" value="ContractDetails" style="shape=partialRectangle;connectable=0;fillColor=none;top=0;left=0;bottom=0;right=0;align=left;spacingLeft=6;overflow=hidden;whiteSpace=wrap;html=1;" parent="wAqB0g8G6jM0NXX6ydy0-78" vertex="1">
          <mxGeometry x="30" width="150" height="30" as="geometry">
            <mxRectangle width="150" height="30" as="alternateBounds" />
          </mxGeometry>
        </mxCell>
        <mxCell id="wAqB0g8G6jM0NXX6ydy0-84" value="Diler" style="shape=table;startSize=30;container=1;collapsible=1;childLayout=tableLayout;fixedRows=1;rowLines=0;fontStyle=1;align=center;resizeLast=1;html=1;" parent="1" vertex="1">
          <mxGeometry x="1360" y="40" width="180" height="180" as="geometry" />
        </mxCell>
        <mxCell id="wAqB0g8G6jM0NXX6ydy0-85" value="" style="shape=tableRow;horizontal=0;startSize=0;swimlaneHead=0;swimlaneBody=0;fillColor=none;collapsible=0;dropTarget=0;points=[[0,0.5],[1,0.5]];portConstraint=eastwest;top=0;left=0;right=0;bottom=1;" parent="wAqB0g8G6jM0NXX6ydy0-84" vertex="1">
          <mxGeometry y="30" width="180" height="30" as="geometry" />
        </mxCell>
        <mxCell id="wAqB0g8G6jM0NXX6ydy0-86" value="K5" style="shape=partialRectangle;connectable=0;fillColor=none;top=0;left=0;bottom=0;right=0;fontStyle=1;overflow=hidden;whiteSpace=wrap;html=1;" parent="wAqB0g8G6jM0NXX6ydy0-85" vertex="1">
          <mxGeometry width="30.000000000000455" height="30" as="geometry">
            <mxRectangle width="30.000000000000455" height="30" as="alternateBounds" />
          </mxGeometry>
        </mxCell>
        <mxCell id="wAqB0g8G6jM0NXX6ydy0-87" value="SupplierID(С5)" style="shape=partialRectangle;connectable=0;fillColor=none;top=0;left=0;bottom=0;right=0;align=left;spacingLeft=6;fontStyle=5;overflow=hidden;whiteSpace=wrap;html=1;" parent="wAqB0g8G6jM0NXX6ydy0-85" vertex="1">
          <mxGeometry x="30.000000000000455" width="149.99999999999955" height="30" as="geometry">
            <mxRectangle width="149.99999999999955" height="30" as="alternateBounds" />
          </mxGeometry>
        </mxCell>
        <mxCell id="wAqB0g8G6jM0NXX6ydy0-88" value="" style="shape=tableRow;horizontal=0;startSize=0;swimlaneHead=0;swimlaneBody=0;fillColor=none;collapsible=0;dropTarget=0;points=[[0,0.5],[1,0.5]];portConstraint=eastwest;top=0;left=0;right=0;bottom=0;" parent="wAqB0g8G6jM0NXX6ydy0-84" vertex="1">
          <mxGeometry y="60" width="180" height="30" as="geometry" />
        </mxCell>
        <mxCell id="wAqB0g8G6jM0NXX6ydy0-89" value="" style="shape=partialRectangle;connectable=0;fillColor=none;top=0;left=0;bottom=0;right=0;editable=1;overflow=hidden;whiteSpace=wrap;html=1;" parent="wAqB0g8G6jM0NXX6ydy0-88" vertex="1">
          <mxGeometry width="30.000000000000455" height="30" as="geometry">
            <mxRectangle width="30.000000000000455" height="30" as="alternateBounds" />
          </mxGeometry>
        </mxCell>
        <mxCell id="wAqB0g8G6jM0NXX6ydy0-90" value="Name" style="shape=partialRectangle;connectable=0;fillColor=none;top=0;left=0;bottom=0;right=0;align=left;spacingLeft=6;overflow=hidden;whiteSpace=wrap;html=1;" parent="wAqB0g8G6jM0NXX6ydy0-88" vertex="1">
          <mxGeometry x="30.000000000000455" width="149.99999999999955" height="30" as="geometry">
            <mxRectangle width="149.99999999999955" height="30" as="alternateBounds" />
          </mxGeometry>
        </mxCell>
        <mxCell id="wAqB0g8G6jM0NXX6ydy0-116" value="" style="shape=tableRow;horizontal=0;startSize=0;swimlaneHead=0;swimlaneBody=0;fillColor=none;collapsible=0;dropTarget=0;points=[[0,0.5],[1,0.5]];portConstraint=eastwest;top=0;left=0;right=0;bottom=0;" parent="wAqB0g8G6jM0NXX6ydy0-84" vertex="1">
          <mxGeometry y="90" width="180" height="30" as="geometry" />
        </mxCell>
        <mxCell id="wAqB0g8G6jM0NXX6ydy0-117" value="" style="shape=partialRectangle;connectable=0;fillColor=none;top=0;left=0;bottom=0;right=0;editable=1;overflow=hidden;whiteSpace=wrap;html=1;" parent="wAqB0g8G6jM0NXX6ydy0-116" vertex="1">
          <mxGeometry width="30.000000000000455" height="30" as="geometry">
            <mxRectangle width="30.000000000000455" height="30" as="alternateBounds" />
          </mxGeometry>
        </mxCell>
        <mxCell id="wAqB0g8G6jM0NXX6ydy0-118" value="WarrantyPeriod" style="shape=partialRectangle;connectable=0;fillColor=none;top=0;left=0;bottom=0;right=0;align=left;spacingLeft=6;overflow=hidden;whiteSpace=wrap;html=1;" parent="wAqB0g8G6jM0NXX6ydy0-116" vertex="1">
          <mxGeometry x="30.000000000000455" width="149.99999999999955" height="30" as="geometry">
            <mxRectangle width="149.99999999999955" height="30" as="alternateBounds" />
          </mxGeometry>
        </mxCell>
        <mxCell id="wAqB0g8G6jM0NXX6ydy0-91" value="" style="shape=tableRow;horizontal=0;startSize=0;swimlaneHead=0;swimlaneBody=0;fillColor=none;collapsible=0;dropTarget=0;points=[[0,0.5],[1,0.5]];portConstraint=eastwest;top=0;left=0;right=0;bottom=0;" parent="wAqB0g8G6jM0NXX6ydy0-84" vertex="1">
          <mxGeometry y="120" width="180" height="30" as="geometry" />
        </mxCell>
        <mxCell id="wAqB0g8G6jM0NXX6ydy0-92" value="" style="shape=partialRectangle;connectable=0;fillColor=none;top=0;left=0;bottom=0;right=0;editable=1;overflow=hidden;whiteSpace=wrap;html=1;" parent="wAqB0g8G6jM0NXX6ydy0-91" vertex="1">
          <mxGeometry width="30.000000000000455" height="30" as="geometry">
            <mxRectangle width="30.000000000000455" height="30" as="alternateBounds" />
          </mxGeometry>
        </mxCell>
        <mxCell id="wAqB0g8G6jM0NXX6ydy0-93" value="ContractDetails" style="shape=partialRectangle;connectable=0;fillColor=none;top=0;left=0;bottom=0;right=0;align=left;spacingLeft=6;overflow=hidden;whiteSpace=wrap;html=1;" parent="wAqB0g8G6jM0NXX6ydy0-91" vertex="1">
          <mxGeometry x="30.000000000000455" width="149.99999999999955" height="30" as="geometry">
            <mxRectangle width="149.99999999999955" height="30" as="alternateBounds" />
          </mxGeometry>
        </mxCell>
        <mxCell id="wAqB0g8G6jM0NXX6ydy0-94" value="" style="shape=tableRow;horizontal=0;startSize=0;swimlaneHead=0;swimlaneBody=0;fillColor=none;collapsible=0;dropTarget=0;points=[[0,0.5],[1,0.5]];portConstraint=eastwest;top=0;left=0;right=0;bottom=0;" parent="wAqB0g8G6jM0NXX6ydy0-84" vertex="1">
          <mxGeometry y="150" width="180" height="30" as="geometry" />
        </mxCell>
        <mxCell id="wAqB0g8G6jM0NXX6ydy0-95" value="" style="shape=partialRectangle;connectable=0;fillColor=none;top=0;left=0;bottom=0;right=0;editable=1;overflow=hidden;whiteSpace=wrap;html=1;" parent="wAqB0g8G6jM0NXX6ydy0-94" vertex="1">
          <mxGeometry width="30.000000000000455" height="30" as="geometry">
            <mxRectangle width="30.000000000000455" height="30" as="alternateBounds" />
          </mxGeometry>
        </mxCell>
        <mxCell id="wAqB0g8G6jM0NXX6ydy0-96" value="DiscountRate" style="shape=partialRectangle;connectable=0;fillColor=none;top=0;left=0;bottom=0;right=0;align=left;spacingLeft=6;overflow=hidden;whiteSpace=wrap;html=1;" parent="wAqB0g8G6jM0NXX6ydy0-94" vertex="1">
          <mxGeometry x="30.000000000000455" width="149.99999999999955" height="30" as="geometry">
            <mxRectangle width="149.99999999999955" height="30" as="alternateBounds" />
          </mxGeometry>
        </mxCell>
        <mxCell id="wAqB0g8G6jM0NXX6ydy0-125" value="Shop" style="shape=table;startSize=30;container=1;collapsible=1;childLayout=tableLayout;fixedRows=1;rowLines=0;fontStyle=1;align=center;resizeLast=1;html=1;" parent="1" vertex="1">
          <mxGeometry x="1370" y="550" width="180" height="90" as="geometry" />
        </mxCell>
        <mxCell id="wAqB0g8G6jM0NXX6ydy0-126" value="" style="shape=tableRow;horizontal=0;startSize=0;swimlaneHead=0;swimlaneBody=0;fillColor=none;collapsible=0;dropTarget=0;points=[[0,0.5],[1,0.5]];portConstraint=eastwest;top=0;left=0;right=0;bottom=1;" parent="wAqB0g8G6jM0NXX6ydy0-125" vertex="1">
          <mxGeometry y="30" width="180" height="30" as="geometry" />
        </mxCell>
        <mxCell id="wAqB0g8G6jM0NXX6ydy0-127" value="K7" style="shape=partialRectangle;connectable=0;fillColor=none;top=0;left=0;bottom=0;right=0;fontStyle=1;overflow=hidden;whiteSpace=wrap;html=1;" parent="wAqB0g8G6jM0NXX6ydy0-126" vertex="1">
          <mxGeometry width="30" height="30" as="geometry">
            <mxRectangle width="30" height="30" as="alternateBounds" />
          </mxGeometry>
        </mxCell>
        <mxCell id="wAqB0g8G6jM0NXX6ydy0-128" value="SupplierID(С7)" style="shape=partialRectangle;connectable=0;fillColor=none;top=0;left=0;bottom=0;right=0;align=left;spacingLeft=6;fontStyle=5;overflow=hidden;whiteSpace=wrap;html=1;" parent="wAqB0g8G6jM0NXX6ydy0-126" vertex="1">
          <mxGeometry x="30" width="150" height="30" as="geometry">
            <mxRectangle width="150" height="30" as="alternateBounds" />
          </mxGeometry>
        </mxCell>
        <mxCell id="wAqB0g8G6jM0NXX6ydy0-129" value="" style="shape=tableRow;horizontal=0;startSize=0;swimlaneHead=0;swimlaneBody=0;fillColor=none;collapsible=0;dropTarget=0;points=[[0,0.5],[1,0.5]];portConstraint=eastwest;top=0;left=0;right=0;bottom=0;" parent="wAqB0g8G6jM0NXX6ydy0-125" vertex="1">
          <mxGeometry y="60" width="180" height="30" as="geometry" />
        </mxCell>
        <mxCell id="wAqB0g8G6jM0NXX6ydy0-130" value="" style="shape=partialRectangle;connectable=0;fillColor=none;top=0;left=0;bottom=0;right=0;editable=1;overflow=hidden;whiteSpace=wrap;html=1;" parent="wAqB0g8G6jM0NXX6ydy0-129" vertex="1">
          <mxGeometry width="30" height="30" as="geometry">
            <mxRectangle width="30" height="30" as="alternateBounds" />
          </mxGeometry>
        </mxCell>
        <mxCell id="wAqB0g8G6jM0NXX6ydy0-131" value="Location" style="shape=partialRectangle;connectable=0;fillColor=none;top=0;left=0;bottom=0;right=0;align=left;spacingLeft=6;overflow=hidden;whiteSpace=wrap;html=1;" parent="wAqB0g8G6jM0NXX6ydy0-129" vertex="1">
          <mxGeometry x="30" width="150" height="30" as="geometry">
            <mxRectangle width="150" height="30" as="alternateBounds" />
          </mxGeometry>
        </mxCell>
        <mxCell id="wAqB0g8G6jM0NXX6ydy0-132" value="Request" style="shape=table;startSize=30;container=1;collapsible=1;childLayout=tableLayout;fixedRows=1;rowLines=0;fontStyle=1;align=center;resizeLast=1;html=1;" parent="1" vertex="1">
          <mxGeometry x="430" y="45" width="180" height="150" as="geometry" />
        </mxCell>
        <mxCell id="wAqB0g8G6jM0NXX6ydy0-133" value="" style="shape=tableRow;horizontal=0;startSize=0;swimlaneHead=0;swimlaneBody=0;fillColor=none;collapsible=0;dropTarget=0;points=[[0,0.5],[1,0.5]];portConstraint=eastwest;top=0;left=0;right=0;bottom=1;" parent="wAqB0g8G6jM0NXX6ydy0-132" vertex="1">
          <mxGeometry y="30" width="180" height="30" as="geometry" />
        </mxCell>
        <mxCell id="wAqB0g8G6jM0NXX6ydy0-134" value="K12" style="shape=partialRectangle;connectable=0;fillColor=none;top=0;left=0;bottom=0;right=0;fontStyle=1;overflow=hidden;whiteSpace=wrap;html=1;" parent="wAqB0g8G6jM0NXX6ydy0-133" vertex="1">
          <mxGeometry width="30.000000000000455" height="30" as="geometry">
            <mxRectangle width="30.000000000000455" height="30" as="alternateBounds" />
          </mxGeometry>
        </mxCell>
        <mxCell id="wAqB0g8G6jM0NXX6ydy0-135" value="RequestID" style="shape=partialRectangle;connectable=0;fillColor=none;top=0;left=0;bottom=0;right=0;align=left;spacingLeft=6;fontStyle=5;overflow=hidden;whiteSpace=wrap;html=1;" parent="wAqB0g8G6jM0NXX6ydy0-133" vertex="1">
          <mxGeometry x="30.000000000000455" width="149.99999999999955" height="30" as="geometry">
            <mxRectangle width="149.99999999999955" height="30" as="alternateBounds" />
          </mxGeometry>
        </mxCell>
        <mxCell id="wAqB0g8G6jM0NXX6ydy0-136" value="" style="shape=tableRow;horizontal=0;startSize=0;swimlaneHead=0;swimlaneBody=0;fillColor=none;collapsible=0;dropTarget=0;points=[[0,0.5],[1,0.5]];portConstraint=eastwest;top=0;left=0;right=0;bottom=0;" parent="wAqB0g8G6jM0NXX6ydy0-132" vertex="1">
          <mxGeometry y="60" width="180" height="30" as="geometry" />
        </mxCell>
        <mxCell id="wAqB0g8G6jM0NXX6ydy0-137" value="" style="shape=partialRectangle;connectable=0;fillColor=none;top=0;left=0;bottom=0;right=0;editable=1;overflow=hidden;whiteSpace=wrap;html=1;" parent="wAqB0g8G6jM0NXX6ydy0-136" vertex="1">
          <mxGeometry width="30.000000000000455" height="30" as="geometry">
            <mxRectangle width="30.000000000000455" height="30" as="alternateBounds" />
          </mxGeometry>
        </mxCell>
        <mxCell id="wAqB0g8G6jM0NXX6ydy0-138" value="Date" style="shape=partialRectangle;connectable=0;fillColor=none;top=0;left=0;bottom=0;right=0;align=left;spacingLeft=6;overflow=hidden;whiteSpace=wrap;html=1;" parent="wAqB0g8G6jM0NXX6ydy0-136" vertex="1">
          <mxGeometry x="30.000000000000455" width="149.99999999999955" height="30" as="geometry">
            <mxRectangle width="149.99999999999955" height="30" as="alternateBounds" />
          </mxGeometry>
        </mxCell>
        <mxCell id="wAqB0g8G6jM0NXX6ydy0-139" value="" style="shape=tableRow;horizontal=0;startSize=0;swimlaneHead=0;swimlaneBody=0;fillColor=none;collapsible=0;dropTarget=0;points=[[0,0.5],[1,0.5]];portConstraint=eastwest;top=0;left=0;right=0;bottom=0;" parent="wAqB0g8G6jM0NXX6ydy0-132" vertex="1">
          <mxGeometry y="90" width="180" height="30" as="geometry" />
        </mxCell>
        <mxCell id="wAqB0g8G6jM0NXX6ydy0-140" value="" style="shape=partialRectangle;connectable=0;fillColor=none;top=0;left=0;bottom=0;right=0;editable=1;overflow=hidden;whiteSpace=wrap;html=1;" parent="wAqB0g8G6jM0NXX6ydy0-139" vertex="1">
          <mxGeometry width="30.000000000000455" height="30" as="geometry">
            <mxRectangle width="30.000000000000455" height="30" as="alternateBounds" />
          </mxGeometry>
        </mxCell>
        <mxCell id="wAqB0g8G6jM0NXX6ydy0-141" value="Status" style="shape=partialRectangle;connectable=0;fillColor=none;top=0;left=0;bottom=0;right=0;align=left;spacingLeft=6;overflow=hidden;whiteSpace=wrap;html=1;" parent="wAqB0g8G6jM0NXX6ydy0-139" vertex="1">
          <mxGeometry x="30.000000000000455" width="149.99999999999955" height="30" as="geometry">
            <mxRectangle width="149.99999999999955" height="30" as="alternateBounds" />
          </mxGeometry>
        </mxCell>
        <mxCell id="wAqB0g8G6jM0NXX6ydy0-142" value="" style="shape=tableRow;horizontal=0;startSize=0;swimlaneHead=0;swimlaneBody=0;fillColor=none;collapsible=0;dropTarget=0;points=[[0,0.5],[1,0.5]];portConstraint=eastwest;top=0;left=0;right=0;bottom=0;" parent="wAqB0g8G6jM0NXX6ydy0-132" vertex="1">
          <mxGeometry y="120" width="180" height="30" as="geometry" />
        </mxCell>
        <mxCell id="wAqB0g8G6jM0NXX6ydy0-143" value="" style="shape=partialRectangle;connectable=0;fillColor=none;top=0;left=0;bottom=0;right=0;editable=1;overflow=hidden;whiteSpace=wrap;html=1;" parent="wAqB0g8G6jM0NXX6ydy0-142" vertex="1">
          <mxGeometry width="30.000000000000455" height="30" as="geometry">
            <mxRectangle width="30.000000000000455" height="30" as="alternateBounds" />
          </mxGeometry>
        </mxCell>
        <mxCell id="wAqB0g8G6jM0NXX6ydy0-144" value="CustomerPhone" style="shape=partialRectangle;connectable=0;fillColor=none;top=0;left=0;bottom=0;right=0;align=left;spacingLeft=6;overflow=hidden;whiteSpace=wrap;html=1;" parent="wAqB0g8G6jM0NXX6ydy0-142" vertex="1">
          <mxGeometry x="30.000000000000455" width="149.99999999999955" height="30" as="geometry">
            <mxRectangle width="149.99999999999955" height="30" as="alternateBounds" />
          </mxGeometry>
        </mxCell>
        <mxCell id="wAqB0g8G6jM0NXX6ydy0-154" value="RequestPart" style="shape=table;startSize=30;container=1;collapsible=1;childLayout=tableLayout;fixedRows=1;rowLines=0;fontStyle=1;align=center;resizeLast=1;html=1;" parent="1" vertex="1">
          <mxGeometry x="110" y="70" width="180" height="100.00000000000023" as="geometry" />
        </mxCell>
        <mxCell id="wAqB0g8G6jM0NXX6ydy0-155" value="" style="shape=tableRow;horizontal=0;startSize=0;swimlaneHead=0;swimlaneBody=0;fillColor=none;collapsible=0;dropTarget=0;points=[[0,0.5],[1,0.5]];portConstraint=eastwest;top=0;left=0;right=0;bottom=1;" parent="wAqB0g8G6jM0NXX6ydy0-154" vertex="1">
          <mxGeometry y="30" width="180" height="40" as="geometry" />
        </mxCell>
        <mxCell id="wAqB0g8G6jM0NXX6ydy0-156" value="K11" style="shape=partialRectangle;connectable=0;fillColor=none;top=0;left=0;bottom=0;right=0;fontStyle=1;overflow=hidden;whiteSpace=wrap;html=1;" parent="wAqB0g8G6jM0NXX6ydy0-155" vertex="1">
          <mxGeometry width="30.000000000000455" height="40" as="geometry">
            <mxRectangle width="30.000000000000455" height="40" as="alternateBounds" />
          </mxGeometry>
        </mxCell>
        <mxCell id="wAqB0g8G6jM0NXX6ydy0-157" value="RequestID(С12)&lt;div&gt;PartID(С11)&lt;/div&gt;" style="shape=partialRectangle;connectable=0;fillColor=none;top=0;left=0;bottom=0;right=0;align=left;spacingLeft=6;fontStyle=5;overflow=hidden;whiteSpace=wrap;html=1;" parent="wAqB0g8G6jM0NXX6ydy0-155" vertex="1">
          <mxGeometry x="30.000000000000455" width="149.99999999999955" height="40" as="geometry">
            <mxRectangle width="149.99999999999955" height="40" as="alternateBounds" />
          </mxGeometry>
        </mxCell>
        <mxCell id="wAqB0g8G6jM0NXX6ydy0-164" value="" style="shape=tableRow;horizontal=0;startSize=0;swimlaneHead=0;swimlaneBody=0;fillColor=none;collapsible=0;dropTarget=0;points=[[0,0.5],[1,0.5]];portConstraint=eastwest;top=0;left=0;right=0;bottom=0;" parent="wAqB0g8G6jM0NXX6ydy0-154" vertex="1">
          <mxGeometry y="70" width="180" height="30" as="geometry" />
        </mxCell>
        <mxCell id="wAqB0g8G6jM0NXX6ydy0-165" value="" style="shape=partialRectangle;connectable=0;fillColor=none;top=0;left=0;bottom=0;right=0;editable=1;overflow=hidden;whiteSpace=wrap;html=1;" parent="wAqB0g8G6jM0NXX6ydy0-164" vertex="1">
          <mxGeometry width="30.000000000000455" height="30" as="geometry">
            <mxRectangle width="30.000000000000455" height="30" as="alternateBounds" />
          </mxGeometry>
        </mxCell>
        <mxCell id="wAqB0g8G6jM0NXX6ydy0-166" value="Count" style="shape=partialRectangle;connectable=0;fillColor=none;top=0;left=0;bottom=0;right=0;align=left;spacingLeft=6;overflow=hidden;whiteSpace=wrap;html=1;" parent="wAqB0g8G6jM0NXX6ydy0-164" vertex="1">
          <mxGeometry x="30.000000000000455" width="149.99999999999955" height="30" as="geometry">
            <mxRectangle width="149.99999999999955" height="30" as="alternateBounds" />
          </mxGeometry>
        </mxCell>
        <mxCell id="wAqB0g8G6jM0NXX6ydy0-168" value="Warehouse" style="shape=table;startSize=30;container=1;collapsible=1;childLayout=tableLayout;fixedRows=1;rowLines=0;fontStyle=1;align=center;resizeLast=1;html=1;" parent="1" vertex="1">
          <mxGeometry x="-190" y="305" width="180" height="120" as="geometry" />
        </mxCell>
        <mxCell id="wAqB0g8G6jM0NXX6ydy0-169" value="" style="shape=tableRow;horizontal=0;startSize=0;swimlaneHead=0;swimlaneBody=0;fillColor=none;collapsible=0;dropTarget=0;points=[[0,0.5],[1,0.5]];portConstraint=eastwest;top=0;left=0;right=0;bottom=1;" parent="wAqB0g8G6jM0NXX6ydy0-168" vertex="1">
          <mxGeometry y="30" width="180" height="30" as="geometry" />
        </mxCell>
        <mxCell id="wAqB0g8G6jM0NXX6ydy0-170" value="K9" style="shape=partialRectangle;connectable=0;fillColor=none;top=0;left=0;bottom=0;right=0;fontStyle=1;overflow=hidden;whiteSpace=wrap;html=1;" parent="wAqB0g8G6jM0NXX6ydy0-169" vertex="1">
          <mxGeometry width="30.000000000000455" height="30" as="geometry">
            <mxRectangle width="30.000000000000455" height="30" as="alternateBounds" />
          </mxGeometry>
        </mxCell>
        <mxCell id="wAqB0g8G6jM0NXX6ydy0-171" value="WarehousePartID" style="shape=partialRectangle;connectable=0;fillColor=none;top=0;left=0;bottom=0;right=0;align=left;spacingLeft=6;fontStyle=5;overflow=hidden;whiteSpace=wrap;html=1;" parent="wAqB0g8G6jM0NXX6ydy0-169" vertex="1">
          <mxGeometry x="30.000000000000455" width="149.99999999999955" height="30" as="geometry">
            <mxRectangle width="149.99999999999955" height="30" as="alternateBounds" />
          </mxGeometry>
        </mxCell>
        <mxCell id="wAqB0g8G6jM0NXX6ydy0-172" value="" style="shape=tableRow;horizontal=0;startSize=0;swimlaneHead=0;swimlaneBody=0;fillColor=none;collapsible=0;dropTarget=0;points=[[0,0.5],[1,0.5]];portConstraint=eastwest;top=0;left=0;right=0;bottom=0;" parent="wAqB0g8G6jM0NXX6ydy0-168" vertex="1">
          <mxGeometry y="60" width="180" height="30" as="geometry" />
        </mxCell>
        <mxCell id="wAqB0g8G6jM0NXX6ydy0-173" value="" style="shape=partialRectangle;connectable=0;fillColor=none;top=0;left=0;bottom=0;right=0;editable=1;overflow=hidden;whiteSpace=wrap;html=1;" parent="wAqB0g8G6jM0NXX6ydy0-172" vertex="1">
          <mxGeometry width="30.000000000000455" height="30" as="geometry">
            <mxRectangle width="30.000000000000455" height="30" as="alternateBounds" />
          </mxGeometry>
        </mxCell>
        <mxCell id="wAqB0g8G6jM0NXX6ydy0-174" value="PartID(С9)" style="shape=partialRectangle;connectable=0;fillColor=none;top=0;left=0;bottom=0;right=0;align=left;spacingLeft=6;overflow=hidden;whiteSpace=wrap;html=1;" parent="wAqB0g8G6jM0NXX6ydy0-172" vertex="1">
          <mxGeometry x="30.000000000000455" width="149.99999999999955" height="30" as="geometry">
            <mxRectangle width="149.99999999999955" height="30" as="alternateBounds" />
          </mxGeometry>
        </mxCell>
        <mxCell id="wAqB0g8G6jM0NXX6ydy0-175" value="" style="shape=tableRow;horizontal=0;startSize=0;swimlaneHead=0;swimlaneBody=0;fillColor=none;collapsible=0;dropTarget=0;points=[[0,0.5],[1,0.5]];portConstraint=eastwest;top=0;left=0;right=0;bottom=0;" parent="wAqB0g8G6jM0NXX6ydy0-168" vertex="1">
          <mxGeometry y="90" width="180" height="30" as="geometry" />
        </mxCell>
        <mxCell id="wAqB0g8G6jM0NXX6ydy0-176" value="" style="shape=partialRectangle;connectable=0;fillColor=none;top=0;left=0;bottom=0;right=0;editable=1;overflow=hidden;whiteSpace=wrap;html=1;" parent="wAqB0g8G6jM0NXX6ydy0-175" vertex="1">
          <mxGeometry width="30.000000000000455" height="30" as="geometry">
            <mxRectangle width="30.000000000000455" height="30" as="alternateBounds" />
          </mxGeometry>
        </mxCell>
        <mxCell id="wAqB0g8G6jM0NXX6ydy0-177" value="Cell" style="shape=partialRectangle;connectable=0;fillColor=none;top=0;left=0;bottom=0;right=0;align=left;spacingLeft=6;overflow=hidden;whiteSpace=wrap;html=1;" parent="wAqB0g8G6jM0NXX6ydy0-175" vertex="1">
          <mxGeometry x="30.000000000000455" width="149.99999999999955" height="30" as="geometry">
            <mxRectangle width="149.99999999999955" height="30" as="alternateBounds" />
          </mxGeometry>
        </mxCell>
        <mxCell id="wAqB0g8G6jM0NXX6ydy0-203" value="Defect" style="shape=table;startSize=30;container=1;collapsible=1;childLayout=tableLayout;fixedRows=1;rowLines=0;fontStyle=1;align=center;resizeLast=1;html=1;" parent="1" vertex="1">
          <mxGeometry x="-190" y="40" width="180" height="120" as="geometry" />
        </mxCell>
        <mxCell id="wAqB0g8G6jM0NXX6ydy0-204" value="" style="shape=tableRow;horizontal=0;startSize=0;swimlaneHead=0;swimlaneBody=0;fillColor=none;collapsible=0;dropTarget=0;points=[[0,0.5],[1,0.5]];portConstraint=eastwest;top=0;left=0;right=0;bottom=1;" parent="wAqB0g8G6jM0NXX6ydy0-203" vertex="1">
          <mxGeometry y="30" width="180" height="30" as="geometry" />
        </mxCell>
        <mxCell id="wAqB0g8G6jM0NXX6ydy0-205" value="K10" style="shape=partialRectangle;connectable=0;fillColor=none;top=0;left=0;bottom=0;right=0;fontStyle=1;overflow=hidden;whiteSpace=wrap;html=1;" parent="wAqB0g8G6jM0NXX6ydy0-204" vertex="1">
          <mxGeometry width="30.000000000000455" height="30" as="geometry">
            <mxRectangle width="30.000000000000455" height="30" as="alternateBounds" />
          </mxGeometry>
        </mxCell>
        <mxCell id="wAqB0g8G6jM0NXX6ydy0-206" value="WarehousePartID(С10)" style="shape=partialRectangle;connectable=0;fillColor=none;top=0;left=0;bottom=0;right=0;align=left;spacingLeft=6;fontStyle=5;overflow=hidden;whiteSpace=wrap;html=1;" parent="wAqB0g8G6jM0NXX6ydy0-204" vertex="1">
          <mxGeometry x="30.000000000000455" width="149.99999999999955" height="30" as="geometry">
            <mxRectangle width="149.99999999999955" height="30" as="alternateBounds" />
          </mxGeometry>
        </mxCell>
        <mxCell id="wAqB0g8G6jM0NXX6ydy0-207" value="" style="shape=tableRow;horizontal=0;startSize=0;swimlaneHead=0;swimlaneBody=0;fillColor=none;collapsible=0;dropTarget=0;points=[[0,0.5],[1,0.5]];portConstraint=eastwest;top=0;left=0;right=0;bottom=0;" parent="wAqB0g8G6jM0NXX6ydy0-203" vertex="1">
          <mxGeometry y="60" width="180" height="30" as="geometry" />
        </mxCell>
        <mxCell id="wAqB0g8G6jM0NXX6ydy0-208" value="" style="shape=partialRectangle;connectable=0;fillColor=none;top=0;left=0;bottom=0;right=0;editable=1;overflow=hidden;whiteSpace=wrap;html=1;" parent="wAqB0g8G6jM0NXX6ydy0-207" vertex="1">
          <mxGeometry width="30.000000000000455" height="30" as="geometry">
            <mxRectangle width="30.000000000000455" height="30" as="alternateBounds" />
          </mxGeometry>
        </mxCell>
        <mxCell id="wAqB0g8G6jM0NXX6ydy0-209" value="Description" style="shape=partialRectangle;connectable=0;fillColor=none;top=0;left=0;bottom=0;right=0;align=left;spacingLeft=6;overflow=hidden;whiteSpace=wrap;html=1;" parent="wAqB0g8G6jM0NXX6ydy0-207" vertex="1">
          <mxGeometry x="30.000000000000455" width="149.99999999999955" height="30" as="geometry">
            <mxRectangle width="149.99999999999955" height="30" as="alternateBounds" />
          </mxGeometry>
        </mxCell>
        <mxCell id="wAqB0g8G6jM0NXX6ydy0-210" value="" style="shape=tableRow;horizontal=0;startSize=0;swimlaneHead=0;swimlaneBody=0;fillColor=none;collapsible=0;dropTarget=0;points=[[0,0.5],[1,0.5]];portConstraint=eastwest;top=0;left=0;right=0;bottom=0;" parent="wAqB0g8G6jM0NXX6ydy0-203" vertex="1">
          <mxGeometry y="90" width="180" height="30" as="geometry" />
        </mxCell>
        <mxCell id="wAqB0g8G6jM0NXX6ydy0-211" value="" style="shape=partialRectangle;connectable=0;fillColor=none;top=0;left=0;bottom=0;right=0;editable=1;overflow=hidden;whiteSpace=wrap;html=1;" parent="wAqB0g8G6jM0NXX6ydy0-210" vertex="1">
          <mxGeometry width="30.000000000000455" height="30" as="geometry">
            <mxRectangle width="30.000000000000455" height="30" as="alternateBounds" />
          </mxGeometry>
        </mxCell>
        <mxCell id="wAqB0g8G6jM0NXX6ydy0-212" value="Date" style="shape=partialRectangle;connectable=0;fillColor=none;top=0;left=0;bottom=0;right=0;align=left;spacingLeft=6;overflow=hidden;whiteSpace=wrap;html=1;" parent="wAqB0g8G6jM0NXX6ydy0-210" vertex="1">
          <mxGeometry x="30.000000000000455" width="149.99999999999955" height="30" as="geometry">
            <mxRectangle width="149.99999999999955" height="30" as="alternateBounds" />
          </mxGeometry>
        </mxCell>
        <mxCell id="wAqB0g8G6jM0NXX6ydy0-216" value="OrderPart" style="shape=table;startSize=30;container=1;collapsible=1;childLayout=tableLayout;fixedRows=1;rowLines=0;fontStyle=1;align=center;resizeLast=1;html=1;" parent="1" vertex="1">
          <mxGeometry x="400" y="300" width="180" height="130" as="geometry" />
        </mxCell>
        <mxCell id="wAqB0g8G6jM0NXX6ydy0-217" value="" style="shape=tableRow;horizontal=0;startSize=0;swimlaneHead=0;swimlaneBody=0;fillColor=none;collapsible=0;dropTarget=0;points=[[0,0.5],[1,0.5]];portConstraint=eastwest;top=0;left=0;right=0;bottom=1;" parent="wAqB0g8G6jM0NXX6ydy0-216" vertex="1">
          <mxGeometry y="30" width="180" height="40" as="geometry" />
        </mxCell>
        <mxCell id="wAqB0g8G6jM0NXX6ydy0-218" value="K2" style="shape=partialRectangle;connectable=0;fillColor=none;top=0;left=0;bottom=0;right=0;fontStyle=1;overflow=hidden;whiteSpace=wrap;html=1;" parent="wAqB0g8G6jM0NXX6ydy0-217" vertex="1">
          <mxGeometry width="30.000000000000455" height="40" as="geometry">
            <mxRectangle width="30.000000000000455" height="40" as="alternateBounds" />
          </mxGeometry>
        </mxCell>
        <mxCell id="wAqB0g8G6jM0NXX6ydy0-219" value="OrderID(С2)&lt;div&gt;PartID(С1)&lt;/div&gt;" style="shape=partialRectangle;connectable=0;fillColor=none;top=0;left=0;bottom=0;right=0;align=left;spacingLeft=6;fontStyle=5;overflow=hidden;whiteSpace=wrap;html=1;" parent="wAqB0g8G6jM0NXX6ydy0-217" vertex="1">
          <mxGeometry x="30.000000000000455" width="149.99999999999955" height="40" as="geometry">
            <mxRectangle width="149.99999999999955" height="40" as="alternateBounds" />
          </mxGeometry>
        </mxCell>
        <mxCell id="wAqB0g8G6jM0NXX6ydy0-223" value="" style="shape=tableRow;horizontal=0;startSize=0;swimlaneHead=0;swimlaneBody=0;fillColor=none;collapsible=0;dropTarget=0;points=[[0,0.5],[1,0.5]];portConstraint=eastwest;top=0;left=0;right=0;bottom=0;" parent="wAqB0g8G6jM0NXX6ydy0-216" vertex="1">
          <mxGeometry y="70" width="180" height="30" as="geometry" />
        </mxCell>
        <mxCell id="wAqB0g8G6jM0NXX6ydy0-224" value="" style="shape=partialRectangle;connectable=0;fillColor=none;top=0;left=0;bottom=0;right=0;editable=1;overflow=hidden;whiteSpace=wrap;html=1;" parent="wAqB0g8G6jM0NXX6ydy0-223" vertex="1">
          <mxGeometry width="30.000000000000455" height="30" as="geometry">
            <mxRectangle width="30.000000000000455" height="30" as="alternateBounds" />
          </mxGeometry>
        </mxCell>
        <mxCell id="wAqB0g8G6jM0NXX6ydy0-225" value="Count" style="shape=partialRectangle;connectable=0;fillColor=none;top=0;left=0;bottom=0;right=0;align=left;spacingLeft=6;overflow=hidden;whiteSpace=wrap;html=1;" parent="wAqB0g8G6jM0NXX6ydy0-223" vertex="1">
          <mxGeometry x="30.000000000000455" width="149.99999999999955" height="30" as="geometry">
            <mxRectangle width="149.99999999999955" height="30" as="alternateBounds" />
          </mxGeometry>
        </mxCell>
        <mxCell id="wAqB0g8G6jM0NXX6ydy0-226" value="" style="shape=tableRow;horizontal=0;startSize=0;swimlaneHead=0;swimlaneBody=0;fillColor=none;collapsible=0;dropTarget=0;points=[[0,0.5],[1,0.5]];portConstraint=eastwest;top=0;left=0;right=0;bottom=0;" parent="wAqB0g8G6jM0NXX6ydy0-216" vertex="1">
          <mxGeometry y="100" width="180" height="30" as="geometry" />
        </mxCell>
        <mxCell id="wAqB0g8G6jM0NXX6ydy0-227" value="" style="shape=partialRectangle;connectable=0;fillColor=none;top=0;left=0;bottom=0;right=0;editable=1;overflow=hidden;whiteSpace=wrap;html=1;" parent="wAqB0g8G6jM0NXX6ydy0-226" vertex="1">
          <mxGeometry width="30.000000000000455" height="30" as="geometry">
            <mxRectangle width="30.000000000000455" height="30" as="alternateBounds" />
          </mxGeometry>
        </mxCell>
        <mxCell id="wAqB0g8G6jM0NXX6ydy0-228" value="Price" style="shape=partialRectangle;connectable=0;fillColor=none;top=0;left=0;bottom=0;right=0;align=left;spacingLeft=6;overflow=hidden;whiteSpace=wrap;html=1;" parent="wAqB0g8G6jM0NXX6ydy0-226" vertex="1">
          <mxGeometry x="30.000000000000455" width="149.99999999999955" height="30" as="geometry">
            <mxRectangle width="149.99999999999955" height="30" as="alternateBounds" />
          </mxGeometry>
        </mxCell>
        <mxCell id="wAqB0g8G6jM0NXX6ydy0-238" value="" style="edgeStyle=entityRelationEdgeStyle;fontSize=12;html=1;endArrow=ERzeroToOne;startArrow=ERmandOne;rounded=0;endFill=0;" parent="1" source="wAqB0g8G6jM0NXX6ydy0-27" target="wAqB0g8G6jM0NXX6ydy0-84" edge="1">
          <mxGeometry width="100" height="100" relative="1" as="geometry">
            <mxPoint x="1210" y="300" as="sourcePoint" />
            <mxPoint x="1310" y="200" as="targetPoint" />
          </mxGeometry>
        </mxCell>
        <mxCell id="wAqB0g8G6jM0NXX6ydy0-239" value="" style="edgeStyle=entityRelationEdgeStyle;fontSize=12;html=1;endArrow=ERzeroToOne;startArrow=ERmandOne;rounded=0;endFill=0;" parent="1" source="wAqB0g8G6jM0NXX6ydy0-27" target="wAqB0g8G6jM0NXX6ydy0-68" edge="1">
          <mxGeometry width="100" height="100" relative="1" as="geometry">
            <mxPoint x="1190" y="375" as="sourcePoint" />
            <mxPoint x="1370" y="140" as="targetPoint" />
          </mxGeometry>
        </mxCell>
        <mxCell id="wAqB0g8G6jM0NXX6ydy0-240" value="" style="edgeStyle=entityRelationEdgeStyle;fontSize=12;html=1;endArrow=ERzeroToOne;startArrow=ERmandOne;rounded=0;endFill=0;" parent="1" source="wAqB0g8G6jM0NXX6ydy0-27" target="wAqB0g8G6jM0NXX6ydy0-125" edge="1">
          <mxGeometry width="100" height="100" relative="1" as="geometry">
            <mxPoint x="1190" y="375" as="sourcePoint" />
            <mxPoint x="1370" y="375" as="targetPoint" />
          </mxGeometry>
        </mxCell>
        <mxCell id="wAqB0g8G6jM0NXX6ydy0-241" value="" style="edgeStyle=entityRelationEdgeStyle;fontSize=12;html=1;endArrow=ERzeroToOne;startArrow=ERmandOne;rounded=0;endFill=0;" parent="1" source="wAqB0g8G6jM0NXX6ydy0-27" target="wAqB0g8G6jM0NXX6ydy0-40" edge="1">
          <mxGeometry width="100" height="100" relative="1" as="geometry">
            <mxPoint x="1190" y="375" as="sourcePoint" />
            <mxPoint x="1370" y="140" as="targetPoint" />
          </mxGeometry>
        </mxCell>
        <mxCell id="wAqB0g8G6jM0NXX6ydy0-242" value="" style="edgeStyle=entityRelationEdgeStyle;fontSize=12;html=1;endArrow=ERzeroToOne;startArrow=ERmandOne;rounded=0;endFill=0;" parent="1" source="wAqB0g8G6jM0NXX6ydy0-27" target="wAqB0g8G6jM0NXX6ydy0-53" edge="1">
          <mxGeometry width="100" height="100" relative="1" as="geometry">
            <mxPoint x="1190" y="375" as="sourcePoint" />
            <mxPoint x="1180" y="95" as="targetPoint" />
          </mxGeometry>
        </mxCell>
        <mxCell id="wAqB0g8G6jM0NXX6ydy0-243" value="" style="edgeStyle=entityRelationEdgeStyle;fontSize=12;html=1;endArrow=ERzeroToMany;startArrow=ERmandOne;rounded=0;" parent="1" source="wAqB0g8G6jM0NXX6ydy0-27" target="wAqB0g8G6jM0NXX6ydy0-14" edge="1">
          <mxGeometry width="100" height="100" relative="1" as="geometry">
            <mxPoint x="940" y="280" as="sourcePoint" />
            <mxPoint x="880" y="510" as="targetPoint" />
          </mxGeometry>
        </mxCell>
        <mxCell id="wAqB0g8G6jM0NXX6ydy0-244" value="" style="edgeStyle=entityRelationEdgeStyle;fontSize=12;html=1;endArrow=ERzeroToMany;startArrow=ERmandOne;rounded=0;" parent="1" source="wAqB0g8G6jM0NXX6ydy0-14" target="wAqB0g8G6jM0NXX6ydy0-216" edge="1">
          <mxGeometry width="100" height="100" relative="1" as="geometry">
            <mxPoint x="750" y="550" as="sourcePoint" />
            <mxPoint x="630" y="550" as="targetPoint" />
          </mxGeometry>
        </mxCell>
        <mxCell id="wAqB0g8G6jM0NXX6ydy0-245" value="" style="edgeStyle=entityRelationEdgeStyle;fontSize=12;html=1;endArrow=ERzeroToMany;startArrow=ERmandOne;rounded=0;" parent="1" source="wAqB0g8G6jM0NXX6ydy0-1" target="wAqB0g8G6jM0NXX6ydy0-216" edge="1">
          <mxGeometry width="100" height="100" relative="1" as="geometry">
            <mxPoint x="710" y="375" as="sourcePoint" />
            <mxPoint x="570" y="375" as="targetPoint" />
          </mxGeometry>
        </mxCell>
        <mxCell id="wAqB0g8G6jM0NXX6ydy0-246" value="" style="fontSize=12;html=1;endArrow=ERzeroToMany;startArrow=ERmandOne;rounded=0;" parent="1" source="wAqB0g8G6jM0NXX6ydy0-1" target="wAqB0g8G6jM0NXX6ydy0-164" edge="1">
          <mxGeometry width="100" height="100" relative="1" as="geometry">
            <mxPoint x="200" y="280" as="sourcePoint" />
            <mxPoint x="220" y="180" as="targetPoint" />
          </mxGeometry>
        </mxCell>
        <mxCell id="wAqB0g8G6jM0NXX6ydy0-271" value="" style="edgeStyle=entityRelationEdgeStyle;fontSize=12;html=1;endArrow=ERzeroToMany;startArrow=ERmandOne;rounded=0;" parent="1" source="wAqB0g8G6jM0NXX6ydy0-132" target="wAqB0g8G6jM0NXX6ydy0-155" edge="1">
          <mxGeometry width="100" height="100" relative="1" as="geometry">
            <mxPoint x="490" y="245" as="sourcePoint" />
            <mxPoint x="370" y="245" as="targetPoint" />
          </mxGeometry>
        </mxCell>
        <mxCell id="wAqB0g8G6jM0NXX6ydy0-272" value="" style="edgeStyle=entityRelationEdgeStyle;fontSize=12;html=1;endArrow=ERzeroToMany;startArrow=ERmandOne;rounded=0;" parent="1" source="wAqB0g8G6jM0NXX6ydy0-1" target="wAqB0g8G6jM0NXX6ydy0-168" edge="1">
          <mxGeometry width="100" height="100" relative="1" as="geometry">
            <mxPoint x="60" y="500" as="sourcePoint" />
            <mxPoint x="-60" y="500" as="targetPoint" />
          </mxGeometry>
        </mxCell>
        <mxCell id="wAqB0g8G6jM0NXX6ydy0-273" value="" style="fontSize=12;html=1;endArrow=ERzeroToOne;startArrow=ERmandOne;rounded=0;endFill=0;" parent="1" source="wAqB0g8G6jM0NXX6ydy0-168" target="wAqB0g8G6jM0NXX6ydy0-203" edge="1">
          <mxGeometry width="100" height="100" relative="1" as="geometry">
            <mxPoint x="-100" y="245" as="sourcePoint" />
            <mxPoint x="-110" y="180" as="targetPoint" />
          </mxGeometry>
        </mxCell>
        <mxCell id="jmgzF_nWE5HkcFfSH8ml-1" value="С1(K1)" style="text;html=1;align=center;verticalAlign=middle;whiteSpace=wrap;rounded=0;" vertex="1" parent="1">
          <mxGeometry x="310" y="335" width="60" height="30" as="geometry" />
        </mxCell>
        <mxCell id="jmgzF_nWE5HkcFfSH8ml-2" value="С2(K3)" style="text;html=1;align=center;verticalAlign=middle;whiteSpace=wrap;rounded=0;" vertex="1" parent="1">
          <mxGeometry x="600" y="335" width="60" height="30" as="geometry" />
        </mxCell>
        <mxCell id="jmgzF_nWE5HkcFfSH8ml-3" value="С3(PK1)" style="text;html=1;align=center;verticalAlign=middle;whiteSpace=wrap;rounded=0;" vertex="1" parent="1">
          <mxGeometry x="910" y="330" width="60" height="30" as="geometry" />
        </mxCell>
        <mxCell id="jmgzF_nWE5HkcFfSH8ml-4" value="С4(PK1)" style="text;html=1;align=center;verticalAlign=middle;whiteSpace=wrap;rounded=0;" vertex="1" parent="1">
          <mxGeometry x="1120" y="170" width="60" height="30" as="geometry" />
        </mxCell>
        <mxCell id="jmgzF_nWE5HkcFfSH8ml-5" value="С5(PK1)" style="text;html=1;align=center;verticalAlign=middle;whiteSpace=wrap;rounded=0;" vertex="1" parent="1">
          <mxGeometry x="1240.5" y="170" width="60" height="30" as="geometry" />
        </mxCell>
        <mxCell id="jmgzF_nWE5HkcFfSH8ml-6" value="С6(PK1)" style="text;html=1;align=center;verticalAlign=middle;whiteSpace=wrap;rounded=0;" vertex="1" parent="1">
          <mxGeometry x="1260" y="320" width="60" height="30" as="geometry" />
        </mxCell>
        <mxCell id="jmgzF_nWE5HkcFfSH8ml-7" value="С7(PK1)" style="text;html=1;align=center;verticalAlign=middle;whiteSpace=wrap;rounded=0;" vertex="1" parent="1">
          <mxGeometry x="1290" y="460" width="60" height="30" as="geometry" />
        </mxCell>
        <mxCell id="jmgzF_nWE5HkcFfSH8ml-8" value="С8(PK1)" style="text;html=1;align=center;verticalAlign=middle;whiteSpace=wrap;rounded=0;" vertex="1" parent="1">
          <mxGeometry x="1140" y="500" width="60" height="30" as="geometry" />
        </mxCell>
        <mxCell id="jmgzF_nWE5HkcFfSH8ml-9" value="С9(K1)" style="text;html=1;align=center;verticalAlign=middle;whiteSpace=wrap;rounded=0;" vertex="1" parent="1">
          <mxGeometry x="20" y="330" width="60" height="30" as="geometry" />
        </mxCell>
        <mxCell id="jmgzF_nWE5HkcFfSH8ml-10" value="С10(K9)" style="text;html=1;align=center;verticalAlign=middle;whiteSpace=wrap;rounded=0;" vertex="1" parent="1">
          <mxGeometry x="-90" y="210" width="60" height="30" as="geometry" />
        </mxCell>
        <mxCell id="jmgzF_nWE5HkcFfSH8ml-11" value="С11(K1&lt;span style=&quot;background-color: transparent; color: light-dark(rgb(0, 0, 0), rgb(255, 255, 255));&quot;&gt;)&lt;/span&gt;" style="text;html=1;align=center;verticalAlign=middle;whiteSpace=wrap;rounded=0;" vertex="1" parent="1">
          <mxGeometry x="130" y="220" width="60" height="30" as="geometry" />
        </mxCell>
        <mxCell id="jmgzF_nWE5HkcFfSH8ml-12" value="С12(K12&lt;span style=&quot;background-color: transparent; color: light-dark(rgb(0, 0, 0), rgb(255, 255, 255));&quot;&gt;)&lt;/span&gt;" style="text;html=1;align=center;verticalAlign=middle;whiteSpace=wrap;rounded=0;" vertex="1" parent="1">
          <mxGeometry x="330" y="80" width="60" height="30" as="geometry" />
        </mxCell>
        <mxCell id="jmgzF_nWE5HkcFfSH8ml-13" value="" style="endArrow=none;html=1;rounded=0;" edge="1" parent="1">
          <mxGeometry width="50" height="50" relative="1" as="geometry">
            <mxPoint x="610" y="75" as="sourcePoint" />
            <mxPoint x="580" y="45" as="targetPoint" />
          </mxGeometry>
        </mxCell>
        <mxCell id="jmgzF_nWE5HkcFfSH8ml-14" value="" style="endArrow=none;html=1;rounded=0;" edge="1" parent="1">
          <mxGeometry width="50" height="50" relative="1" as="geometry">
            <mxPoint x="290" y="335" as="sourcePoint" />
            <mxPoint x="260" y="305" as="targetPoint" />
          </mxGeometry>
        </mxCell>
        <mxCell id="jmgzF_nWE5HkcFfSH8ml-15" value="" style="endArrow=none;html=1;rounded=0;" edge="1" parent="1">
          <mxGeometry width="50" height="50" relative="1" as="geometry">
            <mxPoint x="1180" y="290" as="sourcePoint" />
            <mxPoint x="1150" y="260" as="targetPoint" />
          </mxGeometry>
        </mxCell>
      </root>
    </mxGraphModel>
  </diagram>
</mxfile>
